<svg version="1" id="Layer_1" xmlns="http://www.w3.org/2000/svg" xmlns:xlink="http://www.w3.org/1999/xlink" width="107.257" height="72.229" viewBox="0 0 107.257 72.229"><style>.st0{fill:#e4665d}.st1{opacity:.57}.st2{fill:#f4a11e}.st3{fill:#c1bd31}.st4{fill:#95be3d}.st5{fill:#fbac18}.st6{fill:#fff}.st7,.st8{fill:none;stroke:#df4c42;stroke-width:.7302;stroke-miterlimit:10}.st8{stroke:#fff;stroke-width:.2835}.st9{opacity:.57;fill:#fff}.st10{fill:#010101}.st11{fill:none;stroke:#de6926;stroke-miterlimit:10}.st12{fill:#de6926}</style><symbol id="gin" viewBox="-53.628 -36.115 107.257 72.229"><path class="st2" d="M34.244 3.47C34.319-13.8 19.644-35.156.63-36.098c-14.255-.707-33.126 21.942-33.2 39.209-.074 17.269 3.111 26.861 32.918 27.441 28.47.558 33.822-9.816 33.896-27.082z"/><path class="st2" d="M-14.524 22.866S-34.936 37.928-39.41 35.422s-.953-19.593 7.701-26.717c8.654-7.128 17.185 14.161 17.185 14.161zM15.24 23.024s20.284 15.281 24.779 12.822c4.494-2.458 1.118-19.581-7.473-26.799S15.24 23.024 15.24 23.024z"/><path class="st12" d="M-31.155 12.593s.68 2.209-3.123 4.396c-3.805 2.186-3.13 5.777-3.825 6.602-.691.822-.722 8.271-.722 8.271s12.436-4.898 16.934-8.186c0 0-4.474-1.955-5.157-4.166-.677-2.21-2.401-2.218-2.397-3.599.004-1.378-1.71-3.318-1.71-3.318zM31.042 12.925s-.7 2.201 3.084 4.431c3.786 2.226 3.082 5.809 3.767 6.64.688.832.656 8.279.656 8.279s-12.396-5.032-16.867-8.365c0 0 4.495-1.906 5.194-4.111.698-2.202 2.423-2.193 2.427-3.572.007-1.379 1.739-3.302 1.739-3.302zM-12.627-1.222c-3.873-.414-8.414.574-11.293 2.455-1.127.736-4.069 1.084-3.442 2.006.57.842 2.493 3.06 4.748 4.732 1.464 1.088 3.146 1.741 5.007 1.938 4.002.43 7.702-1.337 9.598-3.278 1.4-1.436 1.916-3.042 1.414-4.407-.698-1.881-2.838-3.107-6.032-3.446z"/><path class="st3" d="M-7.113 2.615c1.414 4.274-8.758 9.92-15.226 4.815-3.953-3.117-4.085-4.15-1.119-5.97 5.076-3.116 14.933-3.12 16.345 1.155z"/><path class="st10" d="M-15.869 9.47s-7.186-5.451.101-10.153c0-.001 6.506 3.769-.101 10.153z"/><path class="st9" d="M-16.755 5.494c.124-.718-.457-1.392-1.298-1.503-.843-.11-1.625.379-1.75 1.096-.124.717.455 1.39 1.298 1.5.841.113 1.624-.375 1.75-1.093zM-16.973 2.601c.077-.439-.279-.854-.797-.924-.519-.068-1 .232-1.077.675-.078.44.28.854.799.924.516.068.999-.234 1.075-.675z"/><path class="st1 st6" d="M-11.583.59c2.744 3.626.629 6.158.537 6.265.103-.121 3.774-2.626-.537-6.265zM-14.604.188c1.324 4.618-.359 8.229-.432 8.379.08-.17 2.77-3.891.432-8.379zM-18.123.433c-7.638 2.243-3.965 5.75-3.833 5.887-.15-.155-5.484-3.86 3.833-5.887z"/><path class="st12" d="M13.669-.688c3.889-.256 8.386.915 11.193 2.913 1.1.781 4.026 1.246 3.365 2.143-.604.818-2.607 2.956-4.923 4.537-1.502 1.026-3.21 1.611-5.075 1.734-4.016.264-7.647-1.649-9.468-3.666-1.344-1.492-1.8-3.118-1.244-4.462C8.284.66 10.466-.476 13.669-.688z"/><path class="st4" d="M8.015 2.923c-1.574 4.213 8.379 10.266 15.035 5.43 4.066-2.955 4.236-3.981 1.341-5.92-4.955-3.32-14.803-3.726-16.376.49z"/><path class="st10" d="M16.51 10.13s7.384-5.156.278-10.152c.001 0-6.642 3.501-.278 10.152z"/><path class="st9" d="M13.125 5.86c-.098-.722.506-1.371 1.352-1.449.846-.076 1.609.444 1.709 1.167.096.72-.507 1.368-1.354 1.445-.846.079-1.612-.443-1.707-1.163zM13.448 2.979c-.059-.444.313-.843.833-.891.521-.049.992.272 1.052.718.059.444-.312.842-.833.89-.52.049-.993-.273-1.052-.717z"/><path class="st1 st6" d="M12.56 1.08c-2.878 3.513-.862 6.129-.775 6.239-.096-.125-3.668-2.777.775-6.239zM18.397.858c1.324 4.618-.36 8.228-.433 8.381.081-.172 2.771-3.893.433-8.381zM19.101 1.19c7.548 2.55 3.746 5.906 3.607 6.035.157-.146 5.626-3.632-3.607-6.035z"/><path class="st11" d="M-12.189 16.625s4.777 4.539 4.398 10.314M-5.483 27.312s-.856-7.406 3.427-11.536M12.16 16.755S7.344 21.24 7.674 27.022M5.361 27.37s.921-7.396-3.328-11.571"/><path class="st5" d="M-30.338 1.596s3.229-7.384 10.531-10.956 5.411-18.748 5.949-19.647c0-.001-17.279 10.017-16.48 30.603zM31.377.729S28.209-6.69 20.939-10.338c-7.27-3.649-5.072-18.624-5.603-19.527 0-.001 17.195 10.2 16.041 30.594z"/><g><path class="st6" d="M-10.375-17.291c-12.439 7.427-29.742 5.628-42.929 1.893-.478-.135-.405-.414.074-.278 12.867 3.645 29.895 5.376 42.083-1.9.209-.126.899.209.772.285z"/></g><g><path class="st6" d="M-10.84-21.421c-2.529 1.226-5.785 1.268-8.514 1.289-8.477.063-16.924-2.406-24.849-5.166-.553-.193-.029-.304.286-.194 8.241 2.87 16.886 5.25 25.689 4.988 2.129-.063 4.648-.246 6.614-1.199.219-.107.875.232.774.282z"/></g><path class="st2" d="M-7.953-17.896L-5.174-3.26s-1.719-12.827-.652-13.363c1.07-.535-2.127-1.273-2.127-1.273zM8.278-18.233L5.375-3.625s1.831-12.807.766-13.355c-1.064-.548 2.137-1.253 2.137-1.253z"/><path class="st0" d="M6.512-20.108c.631.57 1.223 1.17 1.798 1.794-.114.412-.261.891-.451 1.464-1.082 3.241-7.644.141-7.644.141s-4.454 3.045-7.642.138c0 0-.344-.611-.625-1.336.373-.778.856-1.487 1.316-2.211.128.037.244.069.391.124 1.836.712 3.681-.098 4.486-1.316.483-.729.146-1.874.469-2.652.5-1.196.904-2.86 1.498-3.478.527.556.878 2.374 1.27 3.493.297.852-.04 1.873.396 2.697.495.94 1.791 1.623 2.719 1.494a21.862 21.862 0 0 0 1.989-.387c.011.01.018.024.03.035z"/><path class="st7" d="M-13.241-27.794s8.364-3.025 13.384.732l-.024 5.656"/><path class="st7" d="M13.484-27.651s-8.34-3.114-13.391.588l-.024 5.659"/><path class="st8" d="M-16.893-17.562s-10.168 3.834-20.834-.166M-15.393-23.729s-9.167.334-21.834-5.5"/><g><path class="st6" d="M11.05-17.454c12.11 7.23 29.045 5.38 41.853 1.752.197-.056.928.258.672.33-13.265 3.758-30.639 5.434-43.159-2.041-.354-.212.476-.135.634-.041z"/></g><g><path class="st6" d="M11.437-21.62c2.582 1.251 6.022 1.173 8.793 1.133 8.014-.116 15.96-2.456 23.465-5.07.188-.065.923.235.674.322-8.431 2.936-17.256 5.337-26.258 5.069-2.315-.069-5.02-.308-7.15-1.34-.49-.236.279-.209.476-.114z"/></g><path class="st8" d="M16.865-17.562s10.168 3.834 20.834-.166M15.365-23.729s9.167.334 21.834-5.5"/></symbol><use xlink:href="#gin" width="107.257" height="72.229" id="XMLID_1_" x="-53.628" y="-36.115" transform="matrix(1 0 0 -1 53.628 36.115)" overflow="visible"/></svg>