<svg version="1" xmlns="http://www.w3.org/2000/svg" width="346.667" height="346.667" viewBox="0 0 260.000000 260.000000"><path d="M128.2 4.2c-.8.8-1.2 7.7-1.2 22.2v21.1l-21.8 16.4c-11.9 9-36 27.2-53.5 40.4S19.6 129 19.3 129.8c-.7 1.6 2.9 5 12.2 11.7 3.1 2.2 6.2 4.5 6.8 5 1.2 1 24.3 18.6 68 51.4l20.7 15.6v21.1c0 16.9.3 21.4 1.4 22.3 1.1.9 1.7.8 2.8-.2 1.1-1.1 1.4-5.7 1.3-22.1v-20.8l12.5-9.5c6.9-5.2 14.4-11 16.8-12.7 2.4-1.7 6-4.5 8.1-6.1 2.1-1.7 18.7-14.2 36.9-27.9 18.2-13.6 33.3-25.5 33.7-26.4.3-.9 0-2.1-.7-2.8-.7-.7-18.4-14.1-39.3-29.8-20.9-15.7-38.4-28.9-39-29.4-.5-.4-7.3-5.5-15-11.3l-14-10.6.1-21.2c0-18.7-.2-21.3-1.6-22.1-1.1-.6-2.1-.5-2.8.2zm7.3 52.3c2.2 1.6 4.5 3.4 5.2 4 .6.5 21.6 16.3 46.6 35s45.4 34.4 45.3 35c-.3 1.1-101.5 77.5-102.8 77.5-.6 0-45.4-33.1-54.3-40.3-.5-.4-3.7-2.8-7-5.3s-6.7-5-7.5-5.7c-.8-.7-8.8-6.6-17.7-13.2-8.9-6.6-16.2-12.5-16.2-13 0-.6 1.6-2.2 3.7-3.6 2-1.4 25.3-18.9 51.6-38.8 26.4-19.9 48.2-35.8 48.5-35.4.3.5 2.4 2.1 4.6 3.8z"/><path d="M121.5 92.2c-17.4 2.6-37.4 14.6-49.6 29.8-5.4 6.7-5.6 8.9-1.3 14.7 7 9.4 18.8 19 31.2 25.3 22.3 11.3 47.5 8.4 70.2-8.3 8.2-6 17.7-15.7 19.6-20 1.7-3.7 1.7-4-.1-7.3-2.5-4.7-13.3-15.3-20.3-20-3.1-2.2-5.9-4.2-6.2-4.5-.3-.3-3.4-1.9-7-3.6-11.9-5.7-24.9-7.9-36.5-6.1zM80.6 27.9c-.8 1.2 1.3 5.6 9.7 20.1 5.2 9 7.8 12.6 9.3 12.8 3.6.5 3.4-2.2-.8-9.4-3.9-6.7-5.8-10-11.3-19.7-2.5-4.4-5.5-6.1-6.9-3.8zM175.7 34.2c-16.4 25.3-17.6 27.8-13.6 28.6 2 .4 21.2-28.9 20.7-31.5-.7-3.7-3.6-2.5-7.1 2.9zM47.7 59.3c-.8 2.2.1 3 11.5 10.2C69.6 76 73 77 73 73.6c0-1.7-1-2.5-12.8-10.2-8.5-5.5-11.6-6.5-12.5-4.1zM199.8 67.8c-10.2 6-12 7.9-9.3 9.8 1.4 1 3.3.3 11.3-4.3 11.4-6.5 13.3-8 12.5-9.9-.9-2.5-4.6-1.4-14.5 4.4zM56.5 188.5c-10.4 6.2-11.7 7.2-11.2 8.8.7 2.2 4.5 1.8 8.6-.7 2.2-1.4 4.3-2.6 4.6-2.6.7 0 8.4-4.9 10.7-6.8 2.1-1.8 1.2-4.2-1.6-4.1-1.1 0-6.1 2.5-11.1 5.4zM187.1 186.4c-1.6 1.9-.4 3 11.7 10.8 9.4 5.9 12.4 6.8 13 3.6.2-1.3-2.6-3.6-10-8.4-11.7-7.6-13-8.1-14.7-6zM95.2 199.2c-.5.7-5.1 7.8-10.1 15.7-7 11.2-8.8 14.7-8 15.8.6.7 1.7 1.3 2.4 1.3 1.3 0 20.5-29.4 20.5-31.5 0-.7-.7-1.6-1.6-1.9-2.1-.8-2-.8-3.2.6zM157.4 201.3c-.3.8 3.5 8.3 8.3 16.8 6.5 11.2 9.4 15.5 11 15.7 1.1.2 2.3-.3 2.6-1.1.3-.7-3.5-8.4-8.5-17-6.7-11.8-9.4-15.7-10.9-15.7-1.1 0-2.2.6-2.5 1.3z"/></svg>